# xmcd CD database file
#
# Track frame offsets:
#	182
#	19500
#	35217
#	48597
#	74095
#	90737
#	104235
#	121755
#	134000
#	147957
#	162672
#	182120
#
# Disc length: 2641 seconds
#
# Revision: 6
# Processed by: cddbd v1.5.2PL0 Copyright (c) Steve Scherf et al.
# Submitted via: CDex 1.50
#
DISCID=bd0a4f0c
DTITLE=Neil Diamond - 12 Greatest Hits
DYEAR=1974
DGENRE=Slow Rock
TTITLE0=Sweet Caroline
TTITLE1=Brother Love's Travelling Salvation Show
TTITLE2=Shilo
TTITLE3=Holly Holy
TTITLE4=Brooklyn Road
TTITLE5=Cracklin' Rosie
TTITLE6=Play Me
TTITLE7=Done Too Soon
TTITLE8=Stones
TTITLE9=Song Sung Blue
TTITLE10=Sooliamon
TTITLE11=I Am .. I Said
EXTD=YEAR: 1974
EXTT0=
EXTT1=
EXTT2=
EXTT3=
EXTT4=
EXTT5=
EXTT6=
EXTT7=
EXTT8=
EXTT9=
EXTT10=
EXTT11=
PLAYORDER=
